HIERARCHY
ROOT Hips
{
	OFFSET 0.000000 103.266502 0.000000
	CHANNELS 6 Xposition Yposition Zposition Xrotation Yrotation Zrotation 
	JOINT Spine
	{
		OFFSET -0.002400 12.777504 0.315300
		CHANNELS 3 Xrotation Yrotation Zrotation
		JOINT Spine1
		{
			OFFSET -0.002067 5.816869 0.032633
			CHANNELS 3 Xrotation Yrotation Zrotation
			JOINT Spine1_split
			{
				OFFSET -0.002067 5.816869 0.032633
				CHANNELS 3 Xrotation Yrotation Zrotation
				JOINT Spine2
				{
					OFFSET -0.002067 5.816869 0.032633
					CHANNELS 3 Xrotation Yrotation Zrotation
					JOINT Neck
					{
						OFFSET -0.003700 21.199493 -0.826900
						CHANNELS 3 Xrotation Yrotation Zrotation
						JOINT Head
						{
							OFFSET 0.000000 20.442200 4.834800
							CHANNELS 3 Xrotation Yrotation Zrotation
							JOINT HeadTop_End
							{
								OFFSET 0.000000 34.668396 4.968400
								CHANNELS 3 Xrotation Yrotation Zrotation
								End Site
								{
									OFFSET 0.000000 0.000000 0.000000
								}
							}
						}
					}
					JOINT LeftShoulder
					{
						OFFSET 3.288150 8.794197 -1.372250
						CHANNELS 3 Xrotation Yrotation Zrotation
						JOINT LeftShoulder_split
						{
							OFFSET 3.288150 8.794197 -1.372250
							CHANNELS 3 Xrotation Yrotation Zrotation
							JOINT LeftArm
							{
								OFFSET 11.953299 -2.279007 -0.146200
								CHANNELS 3 Xrotation Yrotation Zrotation
								JOINT LeftForeArm
								{
									OFFSET 18.448900 0.000000 0.000000
									CHANNELS 3 Xrotation Yrotation Zrotation
									JOINT LeftHand
									{
										OFFSET 29.527798 0.000000 0.000000
										CHANNELS 3 Xrotation Yrotation Zrotation
										JOINT LeftHandThumb1
										{
											OFFSET 10.739754 -2.369614 9.225399
											CHANNELS 3 Xrotation Yrotation Zrotation
											JOINT LeftHandThumb2
											{
												OFFSET 4.926170 -2.844131 2.844125
												CHANNELS 3 Xrotation Yrotation Zrotation
												JOINT LeftHandThumb3
												{
													OFFSET 4.614891 -2.664413 2.664409
													CHANNELS 3 Xrotation Yrotation Zrotation
													JOINT LeftHandThumb4
													{
														OFFSET 4.432465 -2.559082 2.559083
														CHANNELS 3 Xrotation Yrotation Zrotation
														End Site
														{
															OFFSET 0.000000 0.000000 0.000000
														}
													}
												}
											}
										}
										JOINT LeftHandIndex1
										{
											OFFSET 26.467674 0.187653 6.405298
											CHANNELS 3 Xrotation Yrotation Zrotation
											JOINT LeftHandIndex2
											{
												OFFSET 8.792900 0.000000 0.000000
												CHANNELS 3 Xrotation Yrotation Zrotation
												JOINT LeftHandIndex3
												{
													OFFSET 10.075203 0.000000 0.000000
													CHANNELS 3 Xrotation Yrotation Zrotation
													End Site
													{
														OFFSET 0.000000 0.000000 0.000000
													}
												}
											}
										}
										JOINT LeftHandMiddle1
										{
											OFFSET 25.764404 0.000000 0.000000
											CHANNELS 3 Xrotation Yrotation Zrotation
											JOINT LeftHandMiddle2
											{
												OFFSET 9.393974 0.000000 0.000000
												CHANNELS 3 Xrotation Yrotation Zrotation
												JOINT LeftHandMiddle3
												{
													OFFSET 10.771950 0.000000 0.000000
													CHANNELS 3 Xrotation Yrotation Zrotation
													End Site
													{
														OFFSET 0.000000 0.000000 0.000000
													}
												}
											}
										}
										JOINT LeftHandRing1
										{
											OFFSET 24.660927 0.144547 -6.225808
											CHANNELS 3 Xrotation Yrotation Zrotation
											JOINT LeftHandRing2
											{
												OFFSET 9.393799 0.000000 0.000000
												CHANNELS 3 Xrotation Yrotation Zrotation
												JOINT LeftHandRing3
												{
													OFFSET 9.928497 0.000000 0.000000
													CHANNELS 3 Xrotation Yrotation Zrotation
													End Site
													{
														OFFSET 0.000000 0.000000 0.000000
													}
												}
											}
										}
										JOINT LeftHandPinky1
										{
											OFFSET 23.655350 0.125290 -12.815412
											CHANNELS 3 Xrotation Yrotation Zrotation
											JOINT LeftHandPinky2
											{
												OFFSET 8.425102 0.000000 0.000000
												CHANNELS 3 Xrotation Yrotation Zrotation
												JOINT LeftHandPinky3
												{
													OFFSET 8.147003 0.000000 0.000000
													CHANNELS 3 Xrotation Yrotation Zrotation
													End Site
													{
														OFFSET 0.000000 0.000000 0.000000
													}
												}
											}
										}
									}
								}
							}
						}
					}
					JOINT RightShoulder
					{
						OFFSET -3.249400 8.794197 -1.372250
						CHANNELS 3 Xrotation Yrotation Zrotation
						JOINT RightShoulder_split
						{
							OFFSET -3.249400 8.794197 -1.372250
							CHANNELS 3 Xrotation Yrotation Zrotation
							JOINT RightArm
							{
								OFFSET -11.953299 -2.279007 -0.146200
								CHANNELS 3 Xrotation Yrotation Zrotation
								JOINT RightForeArm
								{
									OFFSET -18.448900 0.000000 0.000000
									CHANNELS 3 Xrotation Yrotation Zrotation
									JOINT RightHand
									{
										OFFSET -29.527802 0.000000 0.000000
										CHANNELS 3 Xrotation Yrotation Zrotation
										JOINT RightHandThumb1
										{
											OFFSET -10.739754 -2.369614 9.225399
											CHANNELS 3 Xrotation Yrotation Zrotation
											JOINT RightHandThumb2
											{
												OFFSET -4.926170 -2.844131 2.844125
												CHANNELS 3 Xrotation Yrotation Zrotation
												JOINT RightHandThumb3
												{
													OFFSET -4.614891 -2.664413 2.664409
													CHANNELS 3 Xrotation Yrotation Zrotation
													JOINT RightHandThumb4
													{
														OFFSET -4.432465 -2.559082 2.559083
														CHANNELS 3 Xrotation Yrotation Zrotation
														End Site
														{
															OFFSET 0.000000 0.000000 0.000000
														}
													}
												}
											}
										}
										JOINT RightHandIndex1
										{
											OFFSET -26.467674 0.187653 6.405298
											CHANNELS 3 Xrotation Yrotation Zrotation
											JOINT RightHandIndex2
											{
												OFFSET -8.792900 0.000000 0.000000
												CHANNELS 3 Xrotation Yrotation Zrotation
												JOINT RightHandIndex3
												{
													OFFSET -10.075203 0.000000 0.000000
													CHANNELS 3 Xrotation Yrotation Zrotation
													End Site
													{
														OFFSET 0.000000 0.000000 0.000000
													}
												}
											}
										}
										JOINT RightHandMiddle1
										{
											OFFSET -25.764404 0.000000 0.000000
											CHANNELS 3 Xrotation Yrotation Zrotation
											JOINT RightHandMiddle2
											{
												OFFSET -9.393974 0.000000 0.000000
												CHANNELS 3 Xrotation Yrotation Zrotation
												JOINT RightHandMiddle3
												{
													OFFSET -10.771950 0.000000 0.000000
													CHANNELS 3 Xrotation Yrotation Zrotation
													End Site
													{
														OFFSET 0.000000 0.000000 0.000000
													}
												}
											}
										}
										JOINT RightHandRing1
										{
											OFFSET -24.660927 0.144547 -6.225808
											CHANNELS 3 Xrotation Yrotation Zrotation
											JOINT RightHandRing2
											{
												OFFSET -9.393799 0.000000 0.000000
												CHANNELS 3 Xrotation Yrotation Zrotation
												JOINT RightHandRing3
												{
													OFFSET -9.928497 0.000000 0.000000
													CHANNELS 3 Xrotation Yrotation Zrotation
													End Site
													{
														OFFSET 0.000000 0.000000 0.000000
													}
												}
											}
										}
										JOINT RightHandPinky1
										{
											OFFSET -23.655350 0.125290 -12.815412
											CHANNELS 3 Xrotation Yrotation Zrotation
											JOINT RightHandPinky2
											{
												OFFSET -8.425102 0.000000 0.000000
												CHANNELS 3 Xrotation Yrotation Zrotation
												JOINT RightHandPinky3
												{
													OFFSET -8.147003 0.000000 0.000000
													CHANNELS 3 Xrotation Yrotation Zrotation
													End Site
													{
														OFFSET 0.000000 0.000000 0.000000
													}
												}
											}
										}
									}
								}
							}
						}
					}
				}
			}
		}
	}
	JOINT LeftUpLeg
	{
		OFFSET 11.394100 -6.187798 -0.413800
		CHANNELS 3 Xrotation Yrotation Zrotation
		JOINT LeftLeg
		{
			OFFSET 0.430247 -32.302673 3.732800
			CHANNELS 3 Xrotation Yrotation Zrotation
			JOINT LeftFoot
			{
				OFFSET -0.430247 -48.264931 -6.423300
				CHANNELS 3 Xrotation Yrotation Zrotation
				JOINT LeftToeBase
				{
					OFFSET 4.230900 -16.068199 23.438400
					CHANNELS 3 Xrotation Yrotation Zrotation
					JOINT LeftToe_End
					{
						OFFSET 4.510700 0.695400 19.974600
						CHANNELS 3 Xrotation Yrotation Zrotation
						End Site
						{
							OFFSET 0.000000 0.000000 0.000000
						}
					}
				}
			}
		}
	}
	JOINT RightUpLeg
	{
		OFFSET -11.333700 -6.187798 -0.413800
		CHANNELS 3 Xrotation Yrotation Zrotation
		JOINT RightLeg
		{
			OFFSET -0.430392 -32.302628 3.733000
			CHANNELS 3 Xrotation Yrotation Zrotation
			JOINT RightFoot
			{
				OFFSET 0.430392 -48.264973 -6.423500
				CHANNELS 3 Xrotation Yrotation Zrotation
				JOINT RightToeBase
				{
					OFFSET -4.230900 -16.068199 23.438400
					CHANNELS 3 Xrotation Yrotation Zrotation
					JOINT RightToe_End
					{
						OFFSET -4.510700 0.695400 19.974600
						CHANNELS 3 Xrotation Yrotation Zrotation
						End Site
						{
							OFFSET 0.000000 0.000000 0.000000
						}
					}
				}
			}
		}
	}
}
MOTION
Frames: 4
Frame Time: 0.016667
-0.301208 89.715218 0.171851 3.020390 -58.275133 6.520073 11.191477 0.139507 -2.738812 8.434601 0.027697 -5.592320 0.000000 0.000000 0.000000 8.457033 0.027840 -5.591846 -21.556844 25.063183 12.062630 -0.293119 25.465698 -3.208474 0.000001 -0.000000 0.000000 -6.221665 -11.503854 -4.023823 0.000000 0.000000 0.000000 -23.062127 9.568613 -36.639614 0.046129 -43.169271 -0.011174 22.743712 -5.685825 15.979245 -1.064231 -7.954942 8.490104 2.373414 19.986090 -2.038314 0.808200 1.237739 2.631741 0.000000 0.000000 0.000001 13.340896 -1.006683 10.682310 -0.167595 0.303414 -31.105675 0.000001 -0.000001 0.000001 8.495447 -0.329549 -0.915267 0.231505 0.661240 -29.901882 0.000001 -0.000000 -0.000004 6.111762 3.150926 -16.210925 0.047065 0.322411 -30.125458 0.000000 -0.000001 -0.000002 -5.636030 7.709872 -13.878577 0.224361 0.276589 -46.588331 -0.000000 -0.000000 0.000000 -5.488246 10.658303 2.466529 0.000000 0.000000 0.000000 -41.473817 -26.755531 30.078951 24.955404 111.863178 -23.308405 -8.702458 12.422909 -9.802071 0.265002 10.061071 -10.888479 1.383791 -17.412857 3.016291 3.342304 -13.253706 -8.262785 0.000003 0.000004 -0.000002 19.443575 11.174429 -13.340185 -0.118650 -0.322732 18.035594 0.000001 -0.000001 -0.000001 4.320448 2.436979 -4.811726 0.349121 -0.461254 26.890328 -0.000000 -0.000002 0.000002 -7.005624 -10.695124 5.719864 0.111863 -0.089215 26.155899 -0.000002 0.000003 0.000003 -19.433563 -20.238189 5.987863 0.223784 -0.085776 36.844588 0.000001 0.000001 -0.000001 -38.838064 8.056832 26.428167 42.581691 -7.215659 -9.677838 -5.193628 -2.782060 -10.043300 -0.327607 1.238434 0.837236 -0.000000 0.000002 -0.000000 -36.667386 -6.170300 -25.574776 47.503597 1.669124 -7.598154 -14.419477 3.655504 21.028491 -0.322738 -0.997372 -0.837176 -0.000000 0.000000 0.000000 
-0.443643 89.639977 0.243086 1.353948 -58.549597 4.866727 10.938299 -0.044919 -2.509220 7.815274 -0.326024 -5.179801 0.000000 0.000000 0.000000 7.841697 -0.289942 -5.218256 -16.952222 25.003596 11.382626 1.554970 25.240421 -5.687666 0.000000 -0.000001 -0.000001 -6.685503 -11.300279 -5.194095 0.000000 0.000000 0.000000 -20.846111 10.084645 -34.890881 4.501452 -44.384543 0.854197 12.301417 -3.504530 18.746815 -0.817782 -7.008223 8.688580 2.795491 20.865774 -1.954395 1.151893 2.142719 2.837595 0.000000 -0.000000 0.000000 13.346468 -1.013391 8.858988 -0.165548 0.304577 -32.928991 -0.000001 -0.000000 -0.000001 8.466200 -0.311463 -2.738555 0.241809 0.667298 -31.725293 -0.000000 0.000001 -0.000001 6.092964 3.171973 -18.033081 0.048046 0.334598 -31.948825 -0.000000 -0.000001 0.000000 -5.643686 7.720615 -15.700928 0.231598 0.282300 -48.411739 -0.000000 -0.000000 -0.000000 -5.634360 10.125327 2.634049 0.000000 0.000000 0.000000 -41.005608 -24.756285 29.332179 24.443717 110.510323 -22.235817 -0.953750 8.719458 -11.067482 0.356416 9.641544 -10.977432 1.570913 -17.798317 2.977754 3.459286 -13.663740 -8.327546 -0.000002 -0.000005 0.000004 19.447934 11.177515 -10.409359 -0.115824 -0.325268 20.967279 0.000001 -0.000002 -0.000001 4.273856 2.408372 -1.878589 0.365308 -0.471721 29.822095 0.000002 -0.000003 -0.000001 -7.029085 -10.720205 8.646959 0.112315 -0.108836 29.087484 -0.000003 -0.000001 -0.000001 -19.442333 -20.249284 8.916426 0.233698 -0.096695 39.776276 -0.000000 0.000001 0.000002 -38.037385 7.997295 26.929441 42.972675 -7.416225 -9.762420 -5.540206 -2.739542 -10.083193 -0.327616 1.238508 0.837264 -0.000000 -0.000000 0.000000 -35.859992 -6.546650 -25.533984 47.686871 2.149778 -7.583520 -14.640686 3.637803 20.873297 -0.322734 -0.997306 -0.837167 -0.000000 -0.000001 0.000000 
-0.675905 89.531883 0.512067 -0.227792 -58.926542 3.270415 10.330587 -0.452074 -1.936783 6.356272 -1.115940 -4.166069 0.000000 0.000000 0.000000 6.388323 -1.004154 -4.289060 -6.596747 24.682767 10.020962 5.771836 24.455042 -11.198035 -0.000000 -0.000001 0.000001 -7.444598 -11.224857 -7.938098 0.000000 0.000000 0.000000 -17.825472 12.833947 -32.921187 9.087187 -48.058311 1.764695 2.793994 0.641292 21.567473 -0.555591 -5.986834 8.898273 3.257381 21.811552 -1.869786 1.519052 3.119679 3.054330 -0.000000 -0.000000 -0.000002 13.352257 -1.020815 6.893190 -0.163295 0.305712 -34.894969 0.000000 0.000001 0.000001 8.435347 -0.291016 -4.704286 0.253173 0.673451 -33.691332 0.000000 0.000000 -0.000004 6.073472 3.195281 -19.997739 0.049528 0.347702 -33.914700 0.000000 -0.000003 0.000002 -5.651515 7.732443 -17.665769 0.239521 0.288160 -50.377710 0.000000 0.000000 0.000000 -5.983474 8.827084 3.075375 0.000000 0.000000 0.000000 -38.745880 -19.254834 28.391995 20.208655 109.867466 -16.299900 7.140800 4.709853 -11.433876 0.455360 9.184266 -11.073779 1.772481 -18.218546 2.932609 3.586243 -14.110731 -8.397646 -0.000001 0.000001 -0.000001 19.452497 11.181105 -7.215358 -0.112646 -0.327776 24.162119 0.000000 0.000002 0.000000 4.224822 2.374523 1.317756 0.383444 -0.482137 33.017025 0.000000 0.000002 -0.000000 -7.053120 -10.748762 11.837133 0.113811 -0.130190 32.282257 0.000002 0.000000 0.000000 -19.451209 -20.261785 12.108214 0.245147 -0.108074 42.971063 -0.000002 0.000001 0.000000 -37.221826 7.920877 27.448355 43.613019 -7.541301 -9.877218 -6.161519 -2.682470 -10.108437 -0.327572 1.238453 0.837252 0.000000 0.000000 0.000000 -35.010498 -6.894957 -25.579864 47.832675 2.783292 -7.552267 -14.935809 3.594460 20.784402 -0.322745 -0.997419 -0.837151 -0.000000 0.000001 -0.000000 
-1.215676 89.448158 1.043100 -1.827118 -58.871320 1.730521 9.557795 -0.909018 -1.180701 4.553883 -2.005596 -2.831328 0.000000 0.000000 0.000000 4.585544 -1.818064 -3.044925 5.236359 23.944282 8.810547 10.649100 23.072825 -17.338744 0.000003 -0.000001 -0.000000 -8.310469 -11.099476 -11.307727 0.000000 0.000000 0.000000 -14.786342 15.433472 -31.237184 14.384662 -52.081391 3.335641 -5.543242 5.381417 24.045251 -0.295222 -4.957905 9.104966 3.727181 22.762632 -1.791828 1.885247 4.104459 3.267199 -0.000001 -0.000000 0.000001 13.357834 -1.028556 4.914081 -0.161034 0.306763 -36.874132 -0.000001 -0.000000 -0.000005 8.404993 -0.269334 -6.683309 0.264757 0.679258 -35.670642 0.000000 0.000000 0.000000 6.054694 3.219371 -21.975633 0.051431 0.360803 -35.893843 -0.000000 0.000001 0.000000 -5.658982 7.744600 -19.643928 0.247716 0.293879 -52.356918 0.000000 0.000001 0.000000 -6.427620 7.045154 3.807188 0.000000 0.000000 0.000000 -35.653803 -12.738073 26.064687 13.821698 110.918454 -7.469570 13.357307 1.174513 -10.753076 0.549461 8.746522 -11.165467 1.973945 -18.615991 2.888142 3.707279 -14.538672 -8.464231 0.000000 -0.000001 0.000002 19.456637 11.184792 -4.158311 -0.109473 -0.330060 27.220022 0.000002 -0.000002 0.000001 4.179706 2.339671 4.376949 0.401394 -0.491182 36.074996 0.000001 -0.000001 0.000000 -7.074586 -10.777303 14.890796 0.116394 -0.150521 35.340041 0.000002 0.000003 0.000001 -19.459004 -20.274168 15.163327 0.256675 -0.118273 46.028942 -0.000003 -0.000002 0.000002 -36.247988 7.945637 27.817489 44.186854 -8.051920 -10.025785 -7.003989 -2.616347 -10.010207 -0.327618 1.238404 0.837258 -0.000000 -0.000001 0.000000 -33.602290 -7.387014 -25.849191 47.770739 3.143274 -7.524016 -15.540407 3.448551 20.956532 -0.322705 -0.997290 -0.837196 -0.000000 -0.000002 0.000000 
